<?xml version="1.0" encoding="UTF-8"?>
<svg xmlns="http://www.w3.org/2000/svg" version="1.1" width="100" height="100" viewBox="0 0 100 100"><rect x="0" y="0" width="100" height="100" fill="#ffffff"/><g transform="scale(3.03)"><g transform="translate(0,0)"><path fill-rule="evenodd" d="M8 0L8 1L9 1L9 2L10 2L10 3L11 3L11 1L14 1L14 2L12 2L12 4L11 4L11 5L10 5L10 4L9 4L9 5L10 5L10 8L9 8L9 6L8 6L8 8L9 8L9 9L7 9L7 8L6 8L6 9L5 9L5 8L3 8L3 9L2 9L2 8L0 8L0 9L2 9L2 10L1 10L1 11L0 11L0 12L1 12L1 11L3 11L3 9L4 9L4 11L5 11L5 10L6 10L6 11L7 11L7 12L5 12L5 13L7 13L7 12L8 12L8 11L7 11L7 10L10 10L10 11L9 11L9 13L8 13L8 14L3 14L3 13L4 13L4 12L3 12L3 13L2 13L2 14L1 14L1 13L0 13L0 14L1 14L1 16L0 16L0 17L1 17L1 16L2 16L2 17L3 17L3 19L7 19L7 18L8 18L8 19L9 19L9 21L10 21L10 22L6 22L6 21L8 21L8 20L5 20L5 22L4 22L4 23L3 23L3 22L2 22L2 24L1 24L1 21L4 21L4 20L2 20L2 19L1 19L1 18L0 18L0 19L1 19L1 21L0 21L0 25L3 25L3 24L4 24L4 25L5 25L5 24L6 24L6 25L7 25L7 24L8 24L8 23L11 23L11 21L10 21L10 20L11 20L11 19L12 19L12 21L13 21L13 20L14 20L14 19L16 19L16 21L15 21L15 22L12 22L12 23L17 23L17 24L18 24L18 25L17 25L17 26L16 26L16 24L14 24L14 25L15 25L15 27L14 27L14 26L13 26L13 25L12 25L12 26L13 26L13 27L12 27L12 28L11 28L11 26L10 26L10 28L8 28L8 30L10 30L10 28L11 28L11 30L12 30L12 31L8 31L8 33L9 33L9 32L10 32L10 33L14 33L14 31L15 31L15 33L16 33L16 31L18 31L18 32L17 32L17 33L21 33L21 32L19 32L19 31L20 31L20 30L21 30L21 28L20 28L20 26L21 26L21 27L22 27L22 28L23 28L23 30L22 30L22 33L23 33L23 32L24 32L24 33L26 33L26 32L27 32L27 31L28 31L28 32L29 32L29 30L28 30L28 29L29 29L29 24L31 24L31 25L30 25L30 26L32 26L32 24L31 24L31 23L33 23L33 22L32 22L32 21L30 21L30 20L33 20L33 15L32 15L32 16L31 16L31 15L30 15L30 12L31 12L31 13L33 13L33 12L31 12L31 11L30 11L30 10L29 10L29 9L28 9L28 10L26 10L26 9L27 9L27 8L26 8L26 9L25 9L25 10L26 10L26 11L25 11L25 12L24 12L24 9L22 9L22 10L21 10L21 8L20 8L20 7L21 7L21 6L22 6L22 8L25 8L25 6L24 6L24 5L22 5L22 3L23 3L23 0L22 0L22 1L21 1L21 0L20 0L20 1L18 1L18 0L16 0L16 1L17 1L17 2L18 2L18 3L16 3L16 2L15 2L15 1L14 1L14 0L11 0L11 1L9 1L9 0ZM20 1L20 3L19 3L19 4L21 4L21 1ZM15 3L15 4L12 4L12 5L11 5L11 7L12 7L12 9L10 9L10 10L12 10L12 11L13 11L13 13L11 13L11 12L10 12L10 14L9 14L9 16L10 16L10 17L9 17L9 18L10 18L10 19L11 19L11 18L10 18L10 17L13 17L13 18L12 18L12 19L13 19L13 18L15 18L15 17L16 17L16 15L15 15L15 16L14 16L14 14L15 14L15 13L14 13L14 10L15 10L15 7L16 7L16 9L17 9L17 10L18 10L18 11L19 11L19 12L17 12L17 11L16 11L16 14L18 14L18 15L17 15L17 18L16 18L16 19L17 19L17 20L19 20L19 19L17 19L17 18L19 18L19 17L18 17L18 15L19 15L19 16L21 16L21 17L20 17L20 18L21 18L21 17L22 17L22 18L25 18L25 17L26 17L26 16L27 16L27 18L26 18L26 19L27 19L27 18L28 18L28 19L29 19L29 20L28 20L28 21L27 21L27 20L26 20L26 22L25 22L25 20L24 20L24 19L23 19L23 20L22 20L22 19L20 19L20 22L19 22L19 21L17 21L17 22L19 22L19 23L18 23L18 24L19 24L19 26L17 26L17 27L15 27L15 28L14 28L14 27L13 27L13 28L14 28L14 29L12 29L12 30L15 30L15 28L16 28L16 30L19 30L19 29L20 29L20 28L19 28L19 26L20 26L20 25L21 25L21 26L22 26L22 27L23 27L23 28L24 28L24 27L23 27L23 26L24 26L24 24L28 24L28 23L30 23L30 21L29 21L29 20L30 20L30 19L32 19L32 18L31 18L31 16L30 16L30 15L29 15L29 16L30 16L30 17L29 17L29 18L28 18L28 15L25 15L25 16L24 16L24 17L23 17L23 15L24 15L24 14L29 14L29 11L28 11L28 13L24 13L24 14L23 14L23 13L22 13L22 12L23 12L23 11L21 11L21 10L19 10L19 9L17 9L17 8L19 8L19 7L20 7L20 5L18 5L18 4L17 4L17 5L16 5L16 3ZM24 3L24 4L25 4L25 3ZM12 5L12 7L13 7L13 8L14 8L14 7L15 7L15 5ZM17 5L17 6L16 6L16 7L17 7L17 6L18 6L18 7L19 7L19 6L18 6L18 5ZM13 6L13 7L14 7L14 6ZM23 6L23 7L24 7L24 6ZM32 8L32 9L31 9L31 10L32 10L32 11L33 11L33 10L32 10L32 9L33 9L33 8ZM6 9L6 10L7 10L7 9ZM12 9L12 10L14 10L14 9ZM26 11L26 12L27 12L27 11ZM19 12L19 13L18 13L18 14L19 14L19 15L21 15L21 14L22 14L22 13L21 13L21 12ZM13 13L13 14L10 14L10 16L12 16L12 15L13 15L13 14L14 14L14 13ZM19 13L19 14L21 14L21 13ZM2 14L2 16L3 16L3 14ZM4 15L4 17L5 17L5 16L7 16L7 17L6 17L6 18L7 18L7 17L8 17L8 16L7 16L7 15ZM13 16L13 17L14 17L14 16ZM22 21L22 22L20 22L20 23L24 23L24 21ZM28 21L28 22L26 22L26 23L28 23L28 22L29 22L29 21ZM5 22L5 23L4 23L4 24L5 24L5 23L6 23L6 24L7 24L7 23L6 23L6 22ZM9 24L9 25L8 25L8 26L9 26L9 25L11 25L11 24ZM25 25L25 28L28 28L28 25ZM26 26L26 27L27 27L27 26ZM30 27L30 28L32 28L32 29L33 29L33 28L32 28L32 27ZM18 28L18 29L19 29L19 28ZM25 29L25 31L24 31L24 32L25 32L25 31L27 31L27 29ZM30 29L30 30L31 30L31 29ZM32 30L32 31L30 31L30 32L33 32L33 30ZM12 31L12 32L13 32L13 31ZM0 0L0 7L7 7L7 0ZM1 1L1 6L6 6L6 1ZM2 2L2 5L5 5L5 2ZM26 0L26 7L33 7L33 0ZM27 1L27 6L32 6L32 1ZM28 2L28 5L31 5L31 2ZM0 26L0 33L7 33L7 26ZM1 27L1 32L6 32L6 27ZM2 28L2 31L5 31L5 28Z" fill="#000000"/></g></g></svg>
