<?xml version="1.0" encoding="UTF-8"?>
<svg xmlns="http://www.w3.org/2000/svg" version="1.1" width="100" height="100" viewBox="0 0 100 100"><rect x="0" y="0" width="100" height="100" fill="#ffffff"/><g transform="scale(3.03)"><g transform="translate(0,0)"><path fill-rule="evenodd" d="M10 0L10 1L8 1L8 3L9 3L9 4L8 4L8 8L6 8L6 9L8 9L8 10L6 10L6 11L5 11L5 9L4 9L4 8L3 8L3 9L2 9L2 8L0 8L0 11L1 11L1 12L2 12L2 11L1 11L1 9L2 9L2 10L3 10L3 11L5 11L5 12L3 12L3 13L2 13L2 14L0 14L0 16L1 16L1 17L2 17L2 18L1 18L1 19L2 19L2 20L1 20L1 22L0 22L0 23L1 23L1 24L0 24L0 25L1 25L1 24L2 24L2 25L4 25L4 24L6 24L6 25L8 25L8 27L9 27L9 29L8 29L8 30L9 30L9 29L10 29L10 27L9 27L9 23L8 23L8 22L10 22L10 23L11 23L11 22L10 22L10 21L8 21L8 22L6 22L6 23L4 23L4 22L5 22L5 20L6 20L6 21L7 21L7 20L6 20L6 19L7 19L7 18L6 18L6 19L5 19L5 18L4 18L4 15L5 15L5 17L7 17L7 16L9 16L9 15L13 15L13 16L14 16L14 17L13 17L13 18L12 18L12 17L11 17L11 16L10 16L10 17L9 17L9 18L10 18L10 17L11 17L11 18L12 18L12 19L15 19L15 21L14 21L14 20L13 20L13 21L14 21L14 22L12 22L12 23L13 23L13 25L14 25L14 27L12 27L12 26L11 26L11 28L14 28L14 29L13 29L13 30L12 30L12 29L11 29L11 30L12 30L12 31L8 31L8 33L9 33L9 32L11 32L11 33L15 33L15 32L18 32L18 33L20 33L20 32L21 32L21 33L26 33L26 32L27 32L27 33L28 33L28 31L29 31L29 33L30 33L30 31L29 31L29 29L30 29L30 27L31 27L31 31L33 31L33 29L32 29L32 26L33 26L33 25L32 25L32 26L31 26L31 25L30 25L30 24L28 24L28 20L30 20L30 18L31 18L31 19L33 19L33 18L31 18L31 17L29 17L29 16L30 16L30 15L29 15L29 13L27 13L27 10L28 10L28 12L29 12L29 10L31 10L31 12L32 12L32 13L30 13L30 14L31 14L31 16L32 16L32 17L33 17L33 16L32 16L32 14L33 14L33 9L32 9L32 8L30 8L30 9L29 9L29 8L26 8L26 10L24 10L24 11L26 11L26 13L25 13L25 14L22 14L22 12L23 12L23 13L24 13L24 12L23 12L23 10L22 10L22 8L23 8L23 9L24 9L24 7L25 7L25 6L24 6L24 7L23 7L23 6L22 6L22 7L21 7L21 5L19 5L19 4L20 4L20 3L21 3L21 2L22 2L22 5L25 5L25 4L23 4L23 2L25 2L25 1L24 1L24 0L23 0L23 1L21 1L21 0L19 0L19 1L21 1L21 2L17 2L17 0L13 0L13 1L14 1L14 3L15 3L15 5L14 5L14 4L13 4L13 3L12 3L12 7L11 7L11 4L10 4L10 3L9 3L9 2L11 2L11 0ZM17 3L17 4L16 4L16 6L15 6L15 7L14 7L14 5L13 5L13 7L12 7L12 8L14 8L14 9L15 9L15 10L13 10L13 11L14 11L14 13L12 13L12 14L14 14L14 15L16 15L16 16L15 16L15 17L14 17L14 18L15 18L15 19L16 19L16 20L17 20L17 21L15 21L15 23L14 23L14 24L15 24L15 27L17 27L17 26L18 26L18 27L19 27L19 28L21 28L21 23L20 23L20 24L19 24L19 22L23 22L23 23L22 23L22 25L23 25L23 27L24 27L24 25L23 25L23 23L24 23L24 24L25 24L25 23L26 23L26 24L27 24L27 22L25 22L25 21L27 21L27 20L28 20L28 19L29 19L29 17L28 17L28 18L27 18L27 17L25 17L25 16L27 16L27 15L28 15L28 14L27 14L27 15L26 15L26 14L25 14L25 15L24 15L24 16L23 16L23 17L22 17L22 18L20 18L20 17L21 17L21 16L20 16L20 14L21 14L21 11L22 11L22 10L21 10L21 9L19 9L19 8L21 8L21 7L20 7L20 6L19 6L19 8L17 8L17 7L18 7L18 5L17 5L17 4L19 4L19 3ZM9 5L9 8L8 8L8 9L10 9L10 10L8 10L8 11L11 11L11 8L10 8L10 5ZM16 6L16 7L17 7L17 6ZM17 9L17 10L16 10L16 11L15 11L15 12L16 12L16 13L17 13L17 17L16 17L16 18L17 18L17 17L18 17L18 14L20 14L20 13L19 13L19 12L20 12L20 11L21 11L21 10L18 10L18 9ZM28 9L28 10L29 10L29 9ZM31 9L31 10L32 10L32 9ZM6 11L6 12L7 12L7 13L4 13L4 14L5 14L5 15L6 15L6 16L7 16L7 15L8 15L8 14L11 14L11 13L10 13L10 12L9 12L9 13L8 13L8 12L7 12L7 11ZM17 11L17 12L19 12L19 11ZM7 13L7 14L6 14L6 15L7 15L7 14L8 14L8 13ZM2 15L2 17L3 17L3 15ZM19 16L19 17L20 17L20 16ZM23 17L23 18L24 18L24 19L23 19L23 20L24 20L24 19L25 19L25 20L27 20L27 18L24 18L24 17ZM3 19L3 20L2 20L2 21L3 21L3 22L4 22L4 19ZM17 19L17 20L18 20L18 19ZM19 19L19 20L20 20L20 21L22 21L22 19L21 19L21 20L20 20L20 19ZM11 20L11 21L12 21L12 20ZM31 20L31 21L32 21L32 23L31 23L31 22L30 22L30 21L29 21L29 23L31 23L31 24L33 24L33 21L32 21L32 20ZM17 21L17 23L16 23L16 25L19 25L19 26L20 26L20 25L19 25L19 24L17 24L17 23L18 23L18 21ZM24 22L24 23L25 23L25 22ZM3 23L3 24L4 24L4 23ZM6 23L6 24L8 24L8 23ZM25 25L25 28L28 28L28 25ZM26 26L26 27L27 27L27 26ZM29 26L29 27L30 27L30 26ZM15 28L15 29L14 29L14 30L13 30L13 32L14 32L14 30L15 30L15 31L16 31L16 30L17 30L17 31L18 31L18 32L19 32L19 31L22 31L22 32L24 32L24 31L23 31L23 29L24 29L24 28L23 28L23 29L22 29L22 30L21 30L21 29L19 29L19 30L18 30L18 29L16 29L16 28ZM27 29L27 30L26 30L26 31L25 31L25 32L26 32L26 31L28 31L28 29ZM31 32L31 33L32 33L32 32ZM0 0L0 7L7 7L7 0ZM1 1L1 6L6 6L6 1ZM2 2L2 5L5 5L5 2ZM26 0L26 7L33 7L33 0ZM27 1L27 6L32 6L32 1ZM28 2L28 5L31 5L31 2ZM0 26L0 33L7 33L7 26ZM1 27L1 32L6 32L6 27ZM2 28L2 31L5 31L5 28Z" fill="#000000"/></g></g></svg>
